<svg xmlns="http://www.w3.org/2000/svg" width="53.858" height="53.858" viewBox="0 0 53.858 53.858"><path d="M52.556 10.775v32.14c0 5.322-4.32 9.64-9.643 9.64H10.775c-5.322 0-9.64-4.318-9.64-9.64v-32.14c0-5.323 4.318-9.642 9.64-9.642h32.14c5.322 0 9.64 4.32 9.64 9.642zM40.77 13.99H12.918a3.214 3.214 0 0 0-3.213 3.213c0 1.808 1.874 3.783 3.28 4.72 2.946 1.975 5.992 3.816 8.938 5.758 1.272.84 3.382 2.38 4.922 2.38 1.54 0 3.648-1.54 4.92-2.378 2.98-1.94 5.96-3.85 8.94-5.824 1.305-.87 3.28-2.88 3.28-4.553.002-1.807-1.338-3.314-3.213-3.314zm3.216 7.9c-.637.703-1.34 1.34-2.143 1.84-3.147 2.077-6.395 4.018-9.508 6.16-1.574 1.106-3.516 2.31-5.49 2.31-1.976 0-3.917-1.204-5.49-2.31-3.114-2.142-6.395-4.05-9.508-6.192-.77-.502-1.373-1.24-2.143-1.808v14.596a3.214 3.214 0 0 0 3.213 3.214H40.77a3.216 3.216 0 0 0 3.216-3.214V21.89z"/></svg>