<svg xmlns="http://www.w3.org/2000/svg" width="53.858" height="53.858" viewBox="0 0 53.858 53.858"><path d="M52.556 42.914c0 5.323-4.32 9.642-9.643 9.642H10.775c-5.322 0-9.64-4.32-9.64-9.642v-32.14c0-5.322 4.318-9.64 9.64-9.64h32.14c5.322 0 9.642 4.318 9.642 9.64v32.14zM12.986 9.77c-2.646 0-4.387 1.742-4.387 4.02 0 2.208 1.67 4.016 4.282 4.016h.033c2.712 0 4.386-1.808 4.386-4.017-.032-2.28-1.673-4.02-4.317-4.02zM16.8 44.187V20.953H9.07v23.233h7.73zm27.822 0V30.862c0-7.13-3.816-10.445-8.905-10.445-4.15 0-5.992 2.31-6.997 3.917h.067v-3.38h-7.733s.1 2.175 0 23.232h7.733v-12.99c0-.668.033-1.372.234-1.874.57-1.373 1.844-2.812 3.986-2.812 2.78 0 3.884 2.11 3.884 5.256v12.42h7.733z"/></svg>