<svg xmlns="http://www.w3.org/2000/svg" width="53.858" height="53.858" viewBox="0 0 53.858 53.858"><path d="M26.845 52.556c-14.195 0-25.71-11.517-25.71-25.71S12.65 1.133 26.844 1.133c14.194 0 25.71 11.517 25.71 25.71S41.04 52.557 26.846 52.557zM5.42 26.846c0 11.817 9.606 21.425 21.425 21.425 11.817 0 21.426-9.607 21.426-21.425S38.664 5.42 26.846 5.42C15.027 5.42 5.42 15.026 5.42 26.844z"/><path d="M40.11 36.92l-3.19 3.188c-.42.422-1.006.656-1.592.656s-1.172-.234-1.593-.656l-6.89-6.89-6.89 6.89a2.273 2.273 0 0 1-1.594.656c-.584 0-1.17-.234-1.592-.656L13.58 36.92a2.272 2.272 0 0 1-.656-1.592c0-.586.234-1.172.656-1.594l6.89-6.89-6.89-6.89a2.273 2.273 0 0 1-.656-1.594c0-.586.234-1.172.656-1.594l3.188-3.187a2.277 2.277 0 0 1 1.593-.657c.587 0 1.173.235 1.595.656l6.89 6.89 6.89-6.89c.42-.422 1.007-.657 1.593-.657s1.172.235 1.593.656l3.19 3.186c.42.422.655 1.008.655 1.594a2.28 2.28 0 0 1-.656 1.594l-6.89 6.89 6.89 6.89c.42.422.655 1.008.655 1.594 0 .586-.235 1.172-.656 1.593z"/></svg>