<svg xmlns="http://www.w3.org/2000/svg" width="53.858" height="53.858" viewBox="0 0 53.858 53.858"><path d="M52.556 42.914c0 5.323-4.32 9.642-9.643 9.642H10.775c-5.322 0-9.64-4.32-9.64-9.642v-32.14c0-5.322 4.318-9.64 9.64-9.64h32.14c5.322 0 9.642 4.318 9.642 9.64v32.14zM15.08 25.388c-.28-.88-1.355-1.8-2.91-2.205-1.833-.477-4.136-.35-5.235.818-1.107 1.18-1.048 3.055-.15 4.295 1.114 1.538 3.27 2.546 5.122 2.86 4.48.763 6.933-.604 8.102-4.993 1.215-4.562 1.924-9.315 3.107-13.668.793.937-.567 7.785.03 10.916.188.987 1.074 2.477 2.048 2.84.625.23 1.59.132 1.983-.936 1.06-2.885 3.13-9.36 4.37-13.188.297.552-.893 7.208-1.09 11.028-.046.882.048 1.565.44 2.39.465.984 1.634 1.975 2.284 1.05 1.14-1.623 3.257-6.295 4.662-8.79.112.25-.972 5.226-1.093 6.924-.087 1.24.122 2.133.523 2.808.603 1.016 1.696 1.65 2.566.58 1.158-1.425 2.4-4.69 3.222-6.434-.268 5.478-1.325 10.72-3.25 14.85-2.153 4.618-5.176 7.27-9.38 7.143-3.565-.107-4.177-1.195-5.086-.893-.62.206-.25 1.513.555 2.17 1.098.896 2.762 1.36 4.378 1.362 5.51.01 9.448-3.218 11.958-7.463 2.106-3.56 3.185-7.933 3.577-11.964.286-2.933.138-5.207-.157-6.81-.263-1.43-2.083-2.687-2.964-1.597-.767.95-1.522 2.94-2.412 4.64.597-3.4 1.53-6.505.75-7.942-.767-1.412-2.715-2.27-3.45-1.318-1.036 1.34-2.956 5.614-3.438 6.47.48-3.505.87-5.973 1.086-7.847.28-2.412-.97-3.952-2.04-4.688-.893-.613-2.02-.6-2.557.39-.25.467-.59 1.106-.862 1.874-1.01 2.846-2.253 7.31-3.113 10.072.096-2.406.46-5.13.363-7.48-.08-1.96-1.37-3.617-2.46-4.125-.976-.454-1.89.005-2.47.833-1.453 2.07-2.436 7.095-3.345 11.517-.502 2.44-.856 4.625-1.47 6.206-.77 1.972-1.778 2.172-3.88 1.756-1.712-.34-3.372-1.123-4.072-2.328 1.68-.213 3.093-.085 4.89.04.723.05 1.144-.3.87-1.164z"/></svg>